<mxfile host="192.168.1.201" agent="Mozilla/5.0 (Windows NT 10.0; Win64; x64) AppleWebKit/537.36 (KHTML, like Gecko) Chrome/136.0.0.0 Safari/537.36" version="27.0.5">
  <diagram name="Page-1" id="Es7dlJTiJtThPq93zBnB">
    <mxGraphModel dx="1270" dy="841" grid="0" gridSize="10" guides="1" tooltips="1" connect="1" arrows="1" fold="1" page="1" pageScale="1" pageWidth="850" pageHeight="1100" math="0" shadow="0">
      <root>
        <mxCell id="0" />
        <mxCell id="1" parent="0" />
        <mxCell id="3SwmeYGQy-dHTSV5trK3-1" value="USERS&lt;div&gt;DB&lt;/div&gt;" style="strokeWidth=2;html=1;shape=mxgraph.flowchart.database;whiteSpace=wrap;" parent="1" vertex="1">
          <mxGeometry x="486" y="671" width="100" height="110" as="geometry" />
        </mxCell>
        <mxCell id="3SwmeYGQy-dHTSV5trK3-2" value="Discord" style="rounded=1;whiteSpace=wrap;html=1;absoluteArcSize=1;arcSize=14;strokeWidth=2;" parent="1" vertex="1">
          <mxGeometry x="304" y="340" width="112" height="70" as="geometry" />
        </mxCell>
        <mxCell id="3SwmeYGQy-dHTSV5trK3-3" value="Login" style="strokeWidth=2;html=1;shape=mxgraph.flowchart.start_1;whiteSpace=wrap;" parent="1" vertex="1">
          <mxGeometry x="73" y="674" width="133.33" height="80" as="geometry" />
        </mxCell>
        <mxCell id="3SwmeYGQy-dHTSV5trK3-4" value="Is User Authenticated?" style="strokeWidth=2;html=1;shape=mxgraph.flowchart.decision;whiteSpace=wrap;" parent="1" vertex="1">
          <mxGeometry x="300" y="446" width="120" height="120" as="geometry" />
        </mxCell>
        <mxCell id="3SwmeYGQy-dHTSV5trK3-5" value="API" style="rounded=1;whiteSpace=wrap;html=1;absoluteArcSize=1;arcSize=14;strokeWidth=2;" parent="1" vertex="1">
          <mxGeometry x="480" y="530" width="112" height="70" as="geometry" />
        </mxCell>
        <mxCell id="3SwmeYGQy-dHTSV5trK3-8" style="edgeStyle=orthogonalEdgeStyle;rounded=0;orthogonalLoop=1;jettySize=auto;html=1;exitX=0.5;exitY=0;exitDx=0;exitDy=0;exitPerimeter=0;entryX=0;entryY=0.5;entryDx=0;entryDy=0;" parent="1" source="3SwmeYGQy-dHTSV5trK3-3" target="3SwmeYGQy-dHTSV5trK3-2" edge="1">
          <mxGeometry relative="1" as="geometry">
            <mxPoint x="237" y="457" as="targetPoint" />
          </mxGeometry>
        </mxCell>
        <mxCell id="3SwmeYGQy-dHTSV5trK3-13" value="" style="endArrow=classic;html=1;rounded=0;entryX=1;entryY=0.5;entryDx=0;entryDy=0;startArrow=openThin;startFill=0;exitX=0.75;exitY=0;exitDx=0;exitDy=0;" parent="1" source="3SwmeYGQy-dHTSV5trK3-5" target="3SwmeYGQy-dHTSV5trK3-2" edge="1">
          <mxGeometry width="50" height="50" relative="1" as="geometry">
            <mxPoint x="536" y="530" as="sourcePoint" />
            <mxPoint x="430" y="370" as="targetPoint" />
            <Array as="points">
              <mxPoint x="560" y="375" />
            </Array>
          </mxGeometry>
        </mxCell>
        <mxCell id="3SwmeYGQy-dHTSV5trK3-14" value="User redirected&lt;div&gt;after approval&lt;/div&gt;" style="text;html=1;align=center;verticalAlign=middle;resizable=0;points=[];autosize=1;strokeColor=none;fillColor=none;" parent="1" vertex="1">
          <mxGeometry x="538" y="610" width="100" height="41" as="geometry" />
        </mxCell>
        <mxCell id="3SwmeYGQy-dHTSV5trK3-15" value="POST req to&amp;nbsp;&lt;div&gt;&lt;div style=&quot;&quot;&gt;&lt;span style=&quot;background-color: transparent; color: light-dark(rgb(0, 0, 0), rgb(255, 255, 255));&quot;&gt;exchange code&lt;/span&gt;&lt;/div&gt;&lt;div&gt;for token&lt;/div&gt;&lt;/div&gt;&lt;div&gt;&lt;br&gt;&lt;/div&gt;&lt;div&gt;GET req for&lt;/div&gt;&lt;div&gt;USER info&lt;/div&gt;" style="text;html=1;align=left;verticalAlign=middle;resizable=0;points=[];autosize=1;strokeColor=none;fillColor=none;" parent="1" vertex="1">
          <mxGeometry x="574" y="371" width="99" height="98" as="geometry" />
        </mxCell>
        <mxCell id="3SwmeYGQy-dHTSV5trK3-16" value="Is User&lt;div&gt;Approved?&lt;/div&gt;" style="strokeWidth=2;html=1;shape=mxgraph.flowchart.decision;whiteSpace=wrap;" parent="1" vertex="1">
          <mxGeometry x="480" y="811" width="112" height="112" as="geometry" />
        </mxCell>
        <mxCell id="3SwmeYGQy-dHTSV5trK3-18" value="" style="endArrow=classic;html=1;rounded=0;exitX=0.5;exitY=1;exitDx=0;exitDy=0;" parent="1" source="3SwmeYGQy-dHTSV5trK3-5" target="3SwmeYGQy-dHTSV5trK3-1" edge="1">
          <mxGeometry width="50" height="50" relative="1" as="geometry">
            <mxPoint x="528" y="602" as="sourcePoint" />
            <mxPoint x="621" y="633" as="targetPoint" />
          </mxGeometry>
        </mxCell>
        <mxCell id="3SwmeYGQy-dHTSV5trK3-19" value="Store for approval" style="text;html=1;align=center;verticalAlign=middle;resizable=0;points=[];autosize=1;strokeColor=none;fillColor=none;" parent="1" vertex="1">
          <mxGeometry x="349" y="697" width="113" height="26" as="geometry" />
        </mxCell>
        <mxCell id="3SwmeYGQy-dHTSV5trK3-20" value="" style="endArrow=classic;html=1;rounded=0;entryX=0;entryY=0.5;entryDx=0;entryDy=0;entryPerimeter=0;exitX=1;exitY=0.5;exitDx=0;exitDy=0;exitPerimeter=0;" parent="1" source="3SwmeYGQy-dHTSV5trK3-16" target="3SwmeYGQy-dHTSV5trK3-40" edge="1">
          <mxGeometry width="50" height="50" relative="1" as="geometry">
            <mxPoint x="782.4" y="741.9999999999999" as="sourcePoint" />
            <mxPoint x="713.6" y="742.84" as="targetPoint" />
          </mxGeometry>
        </mxCell>
        <mxCell id="3SwmeYGQy-dHTSV5trK3-22" value="" style="endArrow=classic;html=1;rounded=0;entryX=0.5;entryY=0;entryDx=0;entryDy=0;entryPerimeter=0;exitX=0.5;exitY=1;exitDx=0;exitDy=0;" parent="1" source="3SwmeYGQy-dHTSV5trK3-2" target="3SwmeYGQy-dHTSV5trK3-4" edge="1">
          <mxGeometry width="50" height="50" relative="1" as="geometry">
            <mxPoint x="265" y="477" as="sourcePoint" />
            <mxPoint x="315" y="427" as="targetPoint" />
          </mxGeometry>
        </mxCell>
        <mxCell id="3SwmeYGQy-dHTSV5trK3-23" value="" style="endArrow=classic;html=1;rounded=0;entryX=0;entryY=0.75;entryDx=0;entryDy=0;exitX=0.5;exitY=1;exitDx=0;exitDy=0;exitPerimeter=0;" parent="1" source="3SwmeYGQy-dHTSV5trK3-4" target="3SwmeYGQy-dHTSV5trK3-5" edge="1">
          <mxGeometry width="50" height="50" relative="1" as="geometry">
            <mxPoint x="383" y="632" as="sourcePoint" />
            <mxPoint x="433" y="582" as="targetPoint" />
            <Array as="points">
              <mxPoint x="360" y="584" />
            </Array>
          </mxGeometry>
        </mxCell>
        <mxCell id="3SwmeYGQy-dHTSV5trK3-24" value="" style="endArrow=classic;html=1;rounded=0;exitX=1;exitY=0.5;exitDx=0;exitDy=0;exitPerimeter=0;entryX=0.25;entryY=0;entryDx=0;entryDy=0;" parent="1" source="3SwmeYGQy-dHTSV5trK3-4" target="3SwmeYGQy-dHTSV5trK3-5" edge="1">
          <mxGeometry width="50" height="50" relative="1" as="geometry">
            <mxPoint x="652" y="531" as="sourcePoint" />
            <mxPoint x="702" y="481" as="targetPoint" />
            <Array as="points">
              <mxPoint x="508" y="506" />
            </Array>
          </mxGeometry>
        </mxCell>
        <mxCell id="3SwmeYGQy-dHTSV5trK3-25" value="No" style="text;html=1;align=center;verticalAlign=middle;resizable=0;points=[];autosize=1;strokeColor=none;fillColor=none;" parent="1" vertex="1">
          <mxGeometry x="433" y="481" width="33" height="26" as="geometry" />
        </mxCell>
        <mxCell id="3SwmeYGQy-dHTSV5trK3-29" value="Yes. Check DB" style="text;html=1;align=center;verticalAlign=middle;resizable=0;points=[];autosize=1;strokeColor=none;fillColor=none;" parent="1" vertex="1">
          <mxGeometry x="368" y="590" width="98" height="26" as="geometry" />
        </mxCell>
        <mxCell id="3SwmeYGQy-dHTSV5trK3-31" value="" style="endArrow=classic;html=1;rounded=0;entryX=0;entryY=0.75;entryDx=0;entryDy=0;" parent="1" edge="1">
          <mxGeometry width="50" height="50" relative="1" as="geometry">
            <mxPoint x="361.16999999999996" y="1008" as="sourcePoint" />
            <mxPoint x="697.1700000000001" y="1005" as="targetPoint" />
          </mxGeometry>
        </mxCell>
        <mxCell id="3SwmeYGQy-dHTSV5trK3-32" value="Send msg toADMIN" style="text;html=1;align=center;verticalAlign=middle;resizable=0;points=[];autosize=1;strokeColor=none;fillColor=none;" parent="1" vertex="1">
          <mxGeometry x="355.0000000000001" y="1016" width="124" height="26" as="geometry" />
        </mxCell>
        <mxCell id="3SwmeYGQy-dHTSV5trK3-33" value="" style="endArrow=classic;html=1;rounded=0;entryX=0.5;entryY=1;entryDx=0;entryDy=0;entryPerimeter=0;" parent="1" edge="1">
          <mxGeometry width="50" height="50" relative="1" as="geometry">
            <mxPoint x="364.33" y="1008" as="sourcePoint" />
            <mxPoint x="139.9950000000001" y="755" as="targetPoint" />
            <Array as="points">
              <mxPoint x="140.33" y="1010" />
            </Array>
          </mxGeometry>
        </mxCell>
        <mxCell id="3SwmeYGQy-dHTSV5trK3-34" value="Send msg to USER" style="text;html=1;align=center;verticalAlign=middle;resizable=0;points=[];autosize=1;strokeColor=none;fillColor=none;" parent="1" vertex="1">
          <mxGeometry x="154" y="1016" width="122" height="26" as="geometry" />
        </mxCell>
        <mxCell id="3SwmeYGQy-dHTSV5trK3-38" value="Redirect USER" style="text;html=1;align=center;verticalAlign=middle;resizable=0;points=[];autosize=1;strokeColor=none;fillColor=none;" parent="1" vertex="1">
          <mxGeometry x="595" y="868" width="99" height="26" as="geometry" />
        </mxCell>
        <mxCell id="3SwmeYGQy-dHTSV5trK3-39" value="" style="strokeWidth=2;html=1;shape=mxgraph.flowchart.terminator;whiteSpace=wrap;" parent="1" vertex="1">
          <mxGeometry x="702" y="972" width="100" height="60" as="geometry" />
        </mxCell>
        <mxCell id="3SwmeYGQy-dHTSV5trK3-40" value="" style="strokeWidth=2;html=1;shape=mxgraph.flowchart.terminator;whiteSpace=wrap;" parent="1" vertex="1">
          <mxGeometry x="706" y="837" width="100" height="60" as="geometry" />
        </mxCell>
        <mxCell id="3SwmeYGQy-dHTSV5trK3-42" value="No" style="text;html=1;align=center;verticalAlign=middle;resizable=0;points=[];autosize=1;strokeColor=none;fillColor=none;" parent="1" vertex="1">
          <mxGeometry x="439.5" y="842" width="33" height="26" as="geometry" />
        </mxCell>
        <mxCell id="3SwmeYGQy-dHTSV5trK3-43" value="" style="endArrow=classic;html=1;rounded=0;entryX=0;entryY=0.5;entryDx=0;entryDy=0;entryPerimeter=0;" parent="1" target="3SwmeYGQy-dHTSV5trK3-1" edge="1">
          <mxGeometry width="50" height="50" relative="1" as="geometry">
            <mxPoint x="329" y="726" as="sourcePoint" />
            <mxPoint x="239" y="781" as="targetPoint" />
          </mxGeometry>
        </mxCell>
        <mxCell id="3SwmeYGQy-dHTSV5trK3-44" value="Yes" style="text;html=1;align=center;verticalAlign=middle;resizable=0;points=[];autosize=1;strokeColor=none;fillColor=none;" parent="1" vertex="1">
          <mxGeometry x="625.5" y="842" width="38" height="26" as="geometry" />
        </mxCell>
        <mxCell id="3SwmeYGQy-dHTSV5trK3-45" value="" style="endArrow=classic;html=1;rounded=0;exitX=0;exitY=0.5;exitDx=0;exitDy=0;exitPerimeter=0;" parent="1" source="3SwmeYGQy-dHTSV5trK3-16" edge="1">
          <mxGeometry width="50" height="50" relative="1" as="geometry">
            <mxPoint x="378" y="861" as="sourcePoint" />
            <mxPoint x="331" y="867" as="targetPoint" />
          </mxGeometry>
        </mxCell>
        <mxCell id="3SwmeYGQy-dHTSV5trK3-46" value="" style="endArrow=classic;html=1;rounded=0;exitX=0.5;exitY=1;exitDx=0;exitDy=0;exitPerimeter=0;entryX=0.5;entryY=0;entryDx=0;entryDy=0;entryPerimeter=0;" parent="1" source="3SwmeYGQy-dHTSV5trK3-1" target="3SwmeYGQy-dHTSV5trK3-16" edge="1">
          <mxGeometry width="50" height="50" relative="1" as="geometry">
            <mxPoint x="741" y="694" as="sourcePoint" />
            <mxPoint x="791" y="644" as="targetPoint" />
          </mxGeometry>
        </mxCell>
        <mxCell id="3SwmeYGQy-dHTSV5trK3-48" value="" style="endArrow=none;html=1;rounded=0;" parent="1" edge="1">
          <mxGeometry width="50" height="50" relative="1" as="geometry">
            <mxPoint x="330" y="928" as="sourcePoint" />
            <mxPoint x="330" y="727" as="targetPoint" />
          </mxGeometry>
        </mxCell>
        <mxCell id="3SwmeYGQy-dHTSV5trK3-49" value="" style="endArrow=classic;html=1;rounded=0;" parent="1" edge="1">
          <mxGeometry width="50" height="50" relative="1" as="geometry">
            <mxPoint x="330" y="927" as="sourcePoint" />
            <mxPoint x="330" y="1006" as="targetPoint" />
          </mxGeometry>
        </mxCell>
      </root>
    </mxGraphModel>
  </diagram>
</mxfile>
